<svg xmlns="http://www.w3.org/2000/svg" version="1.0">
<defs>
<symbol id="swarm" viewBox="0 0 1800 1434">
<path d="M8730 13594 c-279 -39 -546 -172 -758 -378 -152 -146 -307 -387 -399 -621 -114 -287 -168 -614 -168 -1010 0 -274 10 -388 66 -730 6 -38 15 -95 20 -125 4 -30 18 -95 29 -145 11 -49 24 -108 29 -130 5 -22 18 -76 31 -120 28 -101 49 -180 59 -225 9 -40 6 -32 102 -315 40 -119 81 -231 109 -300 15 -38 42 -106 60 -150 39 -98 46 -114 105 -239 25 -54 44 -100 42 -102 -2 -2 -172 -6 -378 -8 -363 -4 -411 -7 -729 -47 -47 -6 -116 -15 -155 -20 -38 -4 -90 -13 -115 -18 -25 -5 -88 -17 -140 -26 -52 -9 -117 -23 -145 -30 -138 -38 -214 -55 -227 -50 -9 4 -37 71 -67 163 -29 86 -58 172 -66 190 -8 17 -21 47 -29 65 -20 45 -144 299 -156 317 -5 8 -31 51 -57 95 -109 186 -339 461 -485 582 -39 32 -83 69 -97 82 -68 62 -220 151 -411 240 -18 8 -191 63 -271 85 -169 48 -306 -22 -349 -177 -19 -71 0 -144 56 -206 53 -59 87 -73 244 -102 69 -12 148 -31 175 -42 28 -10 62 -22 76 -27 64 -20 207 -94 301 -156 170 -113 374 -330 502 -533 52 -82 168 -322 206 -426 13 -33 33 -87 45 -121 12 -33 26 -79 30 -102 7 -46 10 -44 -100 -85 -117 -44 -239 -98 -403 -179 -101 -50 -189 -87 -197 -84 -9 3 -18 14 -21 23 -4 10 -35 77 -71 148 -198 400 -483 743 -837 1009 -63 47 -116 86 -119 86 -3 0 -32 17 -64 39 -57 37 -208 112 -308 153 -27 11 -66 26 -85 34 -139 57 -468 98 -584 74 -47 -10 -67 -20 -101 -54 -98 -98 -100 -242 -4 -338 51 -51 90 -66 179 -69 191 -6 411 -40 545 -85 132 -44 385 -177 445 -235 8 -8 28 -23 45 -33 47 -30 210 -193 293 -291 64 -76 176 -236 218 -310 17 -30 103 -194 126 -240 12 -22 27 -52 34 -67 20 -37 10 -53 -65 -104 -222 -151 -478 -383 -668 -604 -111 -130 -303 -386 -303 -405 0 -2 -14 -25 -31 -50 -45 -67 -170 -316 -214 -425 -149 -376 -199 -640 -200 -1045 0 -280 24 -507 72 -685 51 -190 90 -311 160 -504 24 -67 127 -285 171 -361 16 -27 46 -81 67 -120 107 -195 351 -531 538 -739 245 -273 584 -579 892 -806 55 -40 125 -92 155 -115 30 -22 82 -58 115 -80 33 -21 89 -57 125 -80 98 -64 310 -195 315 -195 2 0 28 -14 57 -31 146 -86 427 -233 603 -315 55 -25 141 -66 192 -90 50 -24 96 -44 102 -44 5 0 22 -7 38 -15 54 -28 164 -75 177 -75 7 0 21 -7 32 -15 10 -8 26 -15 34 -15 8 0 66 -21 130 -46"/>
<path d="M6095 6863 c-44 -4 -118 -25 -180 -51 -51 -21 -179 -117 -228 -171 -131 -145 -237 -420 -237 -614 0 -105 41 -285 82 -360 67 -121 124 -186 204 -233 186 -109 390 -99 596 28 95 58 244 239 293 353 102 241 111 478 26 703 -56 150 -184 277 -326 324 -53 18 -164 28 -230 21z"/>
</symbol>
</defs>
</svg>